#!OML:ASF I:\Actors\actors\Patient Classification 2\Patient 1\Session 1\actor1.ASF
:FULLY-SPECIFIED
:DEGREES
889
root -0.510694 18.7134 5.93789 3.48346 -2.84186 -0.972578
lowerback 2.03606 3.0854 -1.86358
upperback -2.01835 4.09942 1.45278
thorax -3.45592 2.10905 2.32501
lowerneck -14.8655 -2.72389 -1.92158
upperneck 34.8208 -3.48449 0.142787
head 14.5095 -1.71044 -0.174879
rclavicle -1.08415e-014 2.78299e-015
rhumerus -3.87842 -7.07912 -54.5546
rradius 69.6502
rwrist -65.106
rhand -13.4005 -75.7628
rfingers 7.12502
rthumb 12.7071 -614.644
lclavicle -1.08415e-014 2.78299e-015
lhumerus -43.4493 -28.7292 97.794
lradius 111.083
lwrist 33.4891
lhand -11.2701 -23.0126
lfingers 7.12502
lthumb 14.7603 6.44188
rfemur 0 0 0
rtibia 0
rfoot 0 0
rtoes 0
lfemur -5.18529 -7.73123 -14.1782
ltibia 21.7338
lfoot -24.6987 16.1964
ltoes -53.9259
890
root -0.514887 18.7182 5.92314 3.64084 -2.80288 -1.35665
lowerback 2.10107 3.06973 -1.5177
upperback -2.10287 4.09407 1.55281
thorax -3.56228 2.10087 2.22936
lowerneck -14.7554 -2.72774 -1.946
upperneck 34.6582 -3.50729 0.210633
head 14.4121 -1.7158 -0.143323
rclavicle 2.67031e-014 5.36719e-015
rhumerus -4.36539 -6.8322 -54.5571
rradius 70.4089
rwrist -64.4789
rhand -13.1269 -74.8722
rfingers 7.12502
rthumb 12.9709 -615.551
lclavicle 2.67031e-014 5.36719e-015
lhumerus -43.3372 -28.6822 97.6571
lradius 110.991
lwrist 33.5893
lhand -11.092 -22.8825
lfingers 7.12502
lthumb 14.9319 6.55929
rfemur 0 0 0
rtibia 0
rfoot 0 0
rtoes 0
lfemur -5.46333 -7.60107 -13.669
ltibia 21.7966
lfoot -24.5572 16.1121
ltoes -53.9775
891
root -0.51217 18.715 5.93713 3.59177 -2.67736 -1.36514
lowerback 1.91575 3.01527 -1.45159
upperback -2.03917 4.02433 1.55267
thorax -3.38328 2.06268 2.2089
lowerneck -14.6172 -2.73726 -1.99511
upperneck 34.4316 -3.53909 0.302519
head 14.2811 -1.72555 -0.0983279
rclavicle -5.52474e-014 -1.8487e-014
rhumerus -4.59014 -6.29269 -54.4365
rradius 70.9737
rwrist -63.1658
rhand -14.3131 -73.8598
rfingers 7.12502
rthumb 11.8272 -616.494
lclavicle -5.52474e-014 -1.8487e-014
lhumerus -43.1604 -28.5807 97.4902
lradius 110.825
lwrist 33.8102
lhand -10.8547 -22.8282
lfingers 7.12502
lthumb 15.1604 6.59649
rfemur 0 0 0
rtibia 0
rfoot 0 0
rtoes 0
lfemur -5.37139 -7.58196 -13.6781
ltibia 21.8059
lfoot -24.5638 15.9806
ltoes -54.0188
892
root -0.510587 18.7119 5.94904 3.52395 -2.61712 -1.29758
lowerback 1.76527 2.97857 -1.48797
upperback -1.97194 3.9741 1.53773
thorax -3.2277 2.03661 2.22699
lowerneck -14.4663 -2.73259 -1.99568
upperneck 34.1342 -3.5558 0.372542
head 14.1142 -1.72606 -0.0676748
rclavicle 3.00763e-014 1.59028e-014
rhumerus -4.49254 -5.41864 -54.1603
rradius 71.0917
rwrist -60.7174
rhand -15.9656 -72.7105
rfingers 7.12502
rthumb 10.2333 -617.558
lclavicle 3.00763e-014 1.59028e-014
lhumerus -42.9176 -28.3901 97.2527
lradius 110.642
lwrist 34.1241
lhand -10.5569 -22.6884
lfingers 7.12502
lthumb 15.4473 6.71438
rfemur 0 0 0
rtibia 0
rfoot 0 0
rtoes 0
lfemur -5.27953 -7.58656 -13.7809
ltibia 21.8569
lfoot -24.605 15.9142
ltoes -54.041
893
root -0.513335 18.7117 5.95107 3.52418 -2.60322 -1.29957
lowerback 1.71993 2.95941 -1.52953
upperback -1.9578 3.94775 1.54751
thorax -3.18976 2.02419 2.26448
lowerneck -14.4325 -2.71065 -1.99974
upperneck 33.8985 -3.54873 0.455465
head 14.0026 -1.71394 -0.0301128
rclavicle -1.23495e-014 -9.54166e-015
rhumerus -4.77459 -4.50956 -53.9858
rradius 71.3604
rwrist -56.6539
rhand -16.1738 -71.6152
rfingers 7.12502
rthumb 10.0325 -618.644
lclavicle -1.23495e-014 -9.54166e-015
lhumerus -42.6341 -28.1382 96.9514
lradius 110.442
lwrist 34.5261
lhand -10.1754 -22.27
lfingers 7.12502
lthumb 15.8147 7.10403
rfemur 0 0 0
rtibia 0
rfoot 0 0
rtoes 0
lfemur -5.28011 -7.52335 -13.7677
ltibia 21.8431
lfoot -24.4839 15.9282
ltoes -54.2112
894
root -0.517232 18.7117 5.95432 3.5448 -2.55613 -1.30936
lowerback 1.65613 2.91416 -1.59859
upperback -1.95617 3.88617 1.56283
thorax -3.15466 1.99505 2.32535
lowerneck -14.444 -2.67891 -1.99542
upperneck 33.6417 -3.51492 0.499857
head 13.891 -1.69448 -0.00606306
rclavicle -2.03351e-014 9.93923e-016
rhumerus -5.30589 -3.40249 -53.8272
rradius 71.9444
rwrist -52.1099
rhand -15.8225 -70.8614
rfingers 7.12502
rthumb 10.3714 -619.414
lclavicle -2.03351e-014 9.93923e-016
lhumerus -42.3141 -27.8026 96.5755
lradius 110.175
lwrist 34.9789
lhand -9.64628 -21.4955
lfingers 7.12502
lthumb 16.3243 7.83744
rfemur 0 0 0
rtibia 0
rfoot 0 0
rtoes 0
lfemur -5.28994 -7.51069 -13.7385
ltibia 21.8102
lfoot -24.4134 15.9516
ltoes -54.3808
895
root -0.519073 18.7107 5.96131 3.53414 -2.52581 -1.23654
lowerback 1.55881 2.87578 -1.71656
upperback -1.94538 3.8321 1.55734
thorax -3.09332 1.97015 2.39369
lowerneck -14.3206 -2.66853 -1.94439
upperneck 33.2291 -3.48108 0.413981
head 13.6775 -1.68857 -0.0388905
rclavicle -7.36124e-016 9.34288e-015
rhumerus -6.39259 -2.59816 -53.8873
rradius 72.9372
rwrist -47.263
rhand -14.7741 -69.7388
rfingers 7.12502
rthumb 11.3826 -620.59
lclavicle -7.36124e-016 9.34288e-015
lhumerus -41.9275 -27.3939 96.2064
lradius 109.727
lwrist 35.3584
lhand -9.12581 -20.6338
lfingers 7.12502
lthumb 16.8253 8.65722
rfemur 0 0 0
rtibia 0
rfoot 0 0
rtoes 0
lfemur -5.23313 -7.65542 -13.8365
ltibia 21.7811
lfoot -24.5013 16.0528
ltoes -54.3678
896
root -0.51918 18.7086 5.97099 3.47112 -2.54258 -1.09579
lowerback 1.46171 2.87627 -1.82459
upperback -1.92141 3.82921 1.50953
thorax -3.01763 1.9696 2.4108
lowerneck -14.1954 -2.70136 -2.00636
upperneck 32.8542 -3.51052 0.421361
head 13.4887 -1.71124 -0.0251118
rclavicle 1.99348e-014 -1.2921e-014
rhumerus -6.99068 -1.23846 -53.5773
rradius 73.2208
rwrist -42.8836
rhand -13.5962 -67.8833
rfingers 7.12502
rthumb 12.5184 -622.512
lclavicle 1.99348e-014 -1.2921e-014
lhumerus -41.4637 -27.0109 95.8353
lradius 109.063
lwrist 35.5225
lhand -8.7092 -19.8395
lfingers 7.12502
lthumb 17.2263 9.417
rfemur 0 0 0
rtibia 0
rfoot 0 0
rtoes 0
lfemur -5.09159 -7.8221 -14.0395
ltibia 21.7532
lfoot -24.6453 16.1746
ltoes -54.2797
897
root -0.523138 18.708 5.97513 3.452 -2.56154 -1.10612
lowerback 1.38864 2.8698 -1.81461
upperback -1.92034 3.82116 1.49122
thorax -2.97292 1.96473 2.39075
lowerneck -14.216 -2.71243 -2.14833
upperneck 32.6033 -3.53929 0.590984
head 13.3927 -1.72004 0.0630686
rclavicle 3.94657e-016 -3.18055e-015
rhumerus -7.95859 0.290783 -53.3188
rradius 73.6174
rwrist -38.4433
rhand -13.2467 -65.5098
rfingers 7.12502
rthumb 12.8554 -624.906
lclavicle 3.94657e-016 -3.18055e-015
lhumerus -40.9612 -26.6454 95.3451
lradius 108.224
lwrist 35.3174
lhand -8.2579 -19.0716
lfingers 7.12502
lthumb 17.6607 10.1464
rfemur 0 0 0
rtibia 0
rfoot 0 0
rtoes 0
lfemur -5.03133 -7.84333 -14.0272
ltibia 21.7317
lfoot -24.6992 16.1844
ltoes -54.2343
898
root -0.530683 18.7074 5.97659 3.44886 -2.60748 -1.22511
lowerback 1.33342 2.84901 -1.77399
upperback -1.93004 3.79594 1.52019
thorax -2.94969 1.95157 2.40171
lowerneck -14.2732 -2.66787 -2.28554
upperneck 32.3405 -3.49316 0.781245
head 13.2992 -1.69249 0.169168
rclavicle -2.32261e-014 -2.18663e-015
rhumerus -8.01566 2.3563 -52.8483
rradius 72.7811
rwrist -34.2509
rhand -13.7002 -63.1467
rfingers 7.12502
rthumb 12.4182 -627.242
lclavicle -2.32261e-014 -2.18663e-015
lhumerus -40.4592 -26.2067 94.7833
lradius 107.187
lwrist 34.7412
lhand -7.69944 -18.4656
lfingers 7.12502
lthumb 18.198 10.7031
rfemur 0 0 0
rtibia 0
rfoot 0 0
rtoes 0
lfemur -5.01578 -7.75725 -13.8647
ltibia 21.7347
lfoot -24.6739 16.163
ltoes -54.2589
899
root -0.537731 18.7068 5.97992 3.41559 -2.65896 -1.30362
lowerback 1.31515 2.83533 -1.74057
upperback -1.95466 3.7789 1.52086
thorax -2.96164 1.94271 2.38478
lowerneck -14.2528 -2.63111 -2.42296
upperneck 32.0233 -3.4567 0.965822
head 13.1661 -1.67049 0.272337
rclavicle 7.32007e-014 1.98785e-016
rhumerus -8.65304 4.29538 -52.5956
rradius 72.8777
rwrist -29.7839
rhand -14.536 -61.859
rfingers 7.12502
rthumb 11.6122 -628.483
lclavicle 7.32007e-014 1.98785e-016
lhumerus -39.9227 -25.7638 94.2419
lradius 105.919
lwrist 33.9557
lhand -7.12029 -17.9385
lfingers 7.12502
lthumb 18.7551 11.1774
rfemur 0 0 0
rtibia 0
rfoot 0 0
rtoes 0
lfemur -4.96566 -7.69418 -13.7571
ltibia 21.7607
lfoot -24.6882 16.1474
ltoes -54.2072
900
root -0.544761 18.7081 5.98062 3.39688 -2.60673 -1.35897
lowerback 1.35334 2.79971 -1.68861
upperback -2.01516 3.73203 1.49672
thorax -3.03785 1.91911 2.32935
lowerneck -14.2014 -2.63133 -2.47572
upperneck 31.6914 -3.45342 1.01305
head 13.0169 -1.67128 0.302145
rclavicle -1.2424e-016 9.93923e-016
rhumerus -9.83935 6.30881 -52.4766
rradius 73.4903
rwrist -25.5575
rhand -15.3608 -60.363
rfingers 7.12502
rthumb 10.8168 -629.936
lclavicle -1.2424e-016 9.93923e-016
lhumerus -39.3796 -25.3703 93.7224
lradius 104.448
lwrist 33.033
lhand -6.56565 -17.4482
lfingers 7.12502
lthumb 19.2885 11.6152
rfemur 0 0 0
rtibia 0
rfoot 0 0
rtoes 0
lfemur -4.95534 -7.69287 -13.6622
ltibia 21.7786
lfoot -24.701 16.0654
ltoes -54.0838
901
root -0.552776 18.7089 5.98051 3.37137 -2.50859 -1.37569
lowerback 1.39074 2.73862 -1.70526
upperback -2.06955 3.64929 1.47403
thorax -3.11005 1.87906 2.31565
lowerneck -14.1544 -2.63898 -2.46141
upperneck 31.3115 -3.43193 0.915907
head 12.8448 -1.67535 0.267332
rclavicle 2.22701e-015 -1.11319e-014
rhumerus -11.2273 8.24346 -52.599
rradius 73.616
rwrist -21.4151
rhand -16.0179 -57.7834
rfingers 7.12502
rthumb 10.1829 -807.517
lclavicle 2.22701e-015 -1.11319e-014
lhumerus -38.8723 -24.9524 93.1845
lradius 102.843
lwrist 32.1169
lhand -5.94822 -17.0314
lfingers 7.12502
lthumb 19.8821 11.9716
rfemur 0 0 0
rtibia 0
rfoot 0 0
rtoes 0
lfemur -4.95006 -7.72872 -13.6067
ltibia 21.7787
lfoot -24.68 16.0044
ltoes -54.0862
902
root -0.560209 18.7079 5.9841 3.34081 -2.49888 -1.37623
lowerback 1.34217 2.69214 -1.73422
upperback -2.09667 3.58583 1.43045
thorax -3.10612 1.84773 2.29165
lowerneck -14.1232 -2.64228 -2.49971
upperneck 30.9197 -3.43076 0.945273
head 12.6772 -1.67777 0.28723
rclavicle 5.16762e-014 3.57812e-015
rhumerus -12.5693 10.0796 -52.9925
rradius 73.6215
rwrist -17.5451
rhand -16.8163 -55.3322
rfingers 7.12502
rthumb 9.41255 -805.102
lclavicle 5.16762e-014 3.57812e-015
lhumerus -38.4273 -24.5489 92.638
lradius 101.151
lwrist 31.2437
lhand -5.4087 -16.6407
lfingers 7.12502
lthumb 20.4007 12.3077
rfemur 0 0 0
rtibia 0
rfoot 0 0
rtoes 0
lfemur -4.90943 -7.77635 -13.5864
ltibia 21.7748
lfoot -24.7164 16.0274
ltoes -54.1128
903
root -0.565677 18.7057 5.99142 3.3036 -2.57421 -1.4327
lowerback 1.24818 2.67011 -1.65753
upperback -2.11568 3.55805 1.37855
thorax -3.06294 1.83122 2.20097
lowerneck -14.0932 -2.63079 -2.53066
upperneck 30.546 -3.42639 1.02432
head 12.5196 -1.67122 0.32507
rclavicle -6.0738e-015 3.57812e-015
rhumerus -13.9197 11.8502 -53.6238
rradius 73.6999
rwrist -13.9451
rhand -17.7115 -53.7157
rfingers 7.12502
rthumb 8.54878 -803.523
lclavicle -6.0738e-015 3.57812e-015
lhumerus -38.0684 -24.1422 92.1519
lradius 99.3599
lwrist 30.2369
lhand -4.99941 -16.3413
lfingers 7.12502
lthumb 20.794 12.5644
rfemur 0 0 0
rtibia 0
rfoot 0 0
rtoes 0
lfemur -4.8128 -7.89283 -13.5332
ltibia 21.7636
lfoot -24.8611 16.1366
ltoes -54.0066
